<svg width="300" height="300" viewBox="0 0 300 300" fill="none" xmlns="http://www.w3.org/2000/svg">
<rect width="300" height="300" rx="8" fill="#E0E7FF"/>
<path d="M30.5 93.127C35.5 75.627 56.0855 67.8936 66.6416 69.127H195C193.292 99.6351 177 119.684 154.5 119.684C132 119.684 122.496 124.627 110.5 171.127C93.8599 235.627 64 230.127 44 230.127L69 148.127C81.9276 113.755 89 93.127 104 86.127C64.5 86.127 46.0521 80.3398 44 106.127H78.5L73 121.127H20L30.5 93.127ZM174.037 86.002C136.946 83.2243 105.993 92.3305 94.0381 121.31C82.1999 150.007 75.8695 173.444 64.5195 213.363L64.252 214.304L65.1709 213.971C74.2665 210.668 80.3461 205.076 85.6494 194.55C90.9332 184.062 95.4662 168.635 101.483 145.627C106.23 127.478 114.344 117.521 123.609 111.875C132.898 106.215 143.408 104.845 153.044 103.998C162.686 103.151 167.364 101.49 169.968 98.5908C171.269 97.1424 172.018 95.4205 172.631 93.4444C172.937 92.457 173.213 91.3948 173.504 90.2656C173.796 89.1332 174.105 87.9288 174.48 86.6406L174.652 86.0479L174.037 86.002Z" fill="url(#paint0_linear_1_23)"/>
<path d="M136 232H154L171.5 168.5C182.814 134.669 196.51 124.522 233.5 121.5L226.5 146L279 113.5L226.5 81.5L233.5 105.5C208 104 190.591 113.666 176.5 125.5C160.5 138.937 156.4 141.104 125.5 141L121.5 156.5C139.497 156.549 150.851 157.064 159 153.5L136 232Z" fill="#1E3245"/>
<defs>
<linearGradient id="paint0_linear_1_23" x1="20" y1="149.622" x2="195" y2="149.622" gradientUnits="userSpaceOnUse">
<stop offset="0.387377" stop-color="#6FB869"/>
<stop offset="0.639386" stop-color="#6394BC"/>
</linearGradient>
</defs>
</svg>
